<?xml version="1.0" standalone="yes"?>
<svg xmlns="http://www.w3.org/2000/svg" width="898" height="898">
<path style="fill:#0e081d; stroke:none;" d="M0 0L0 419L1 419C1 374.905 14.1257 328.928 29.5764 288C75.1737 167.215 174.597 71.8375 295 26.9498C333.559 12.5746 377.609 1 419 1C409.211 -3.10779 392.634 0 382 0L296 0L0 0z"/>
<path style="fill:#462698; stroke:none;" d="M40 266L32 281L213 281C213 251.084 211.348 220.883 210.039 191C209.59 180.731 210.92 170.218 209.715 160C208.341 148.36 209.709 136.667 208.91 125C208.66 121.342 206.582 115.626 209.603 112.603C212.685 109.52 220.043 111.134 224 110.961C235.991 110.436 247.98 109.019 260 109C263.981 108.994 270.054 107.188 273.099 110.333C282.661 120.209 289.295 136.224 296.399 148C313.92 177.047 331.747 205.912 349.2 235C357.427 248.713 365.073 267.071 376.043 278.682C379.382 282.216 385.582 281 390 281C399.58 281 420.298 277.165 428 283L429 283L425 117L491 109L486 281L866 282C852.414 245.517 832.714 211.124 809.373 180C679.371 6.64893 439.249 -48.8713 246 47.7531C177.147 82.1798 116.525 135.51 74.3441 200C64.6571 214.811 55.6512 230.165 47.7531 246C44.7443 252.032 39.8495 259.149 40 266z"/>
<path style="fill:#0e081d; stroke:none;" d="M479 0L479 1C520.391 1 564.441 12.5746 603 26.9498C723.403 71.8375 822.826 167.215 868.424 288C883.874 328.928 897 374.905 897 419L898 419L898 0L479 0z"/>
<path style="fill:#958ab0; stroke:none;" d="M268 108L268 109L273 109L268 108M248 109L248 110L258 110L248 109z"/>
<path style="fill:#d9d9d9; stroke:none;" d="M209 112L215 352L209 478L275 478L267.039 337L267 223L302.424 279L370.424 389L405.189 445L420.49 471L422 502L423.039 554L425.961 674L420 792L486 792L479.039 666L479 537L480 537C486.483 557.345 504.314 577.824 515.576 596C540.752 636.633 565.552 677.505 590.95 718C601.355 734.59 611.581 751.302 621.811 768C626.089 774.984 630.563 786.073 636.786 791.393C640.255 794.359 647.063 791.626 651 790.789C662.663 788.309 674.31 785.752 686 783.4C689.461 782.703 696.68 782.419 698.972 779.411C703 774.126 699.165 761.125 699.015 755C698.468 732.679 696.108 710.296 696.001 688C695.576 599.93 701 512.068 701 424L637 431L642 683L641 683C631.922 658.206 612.08 633.413 598.05 611C572.413 570.044 547.66 528.433 522.8 487C511.917 468.86 493.88 448.266 487.8 428C484.526 417.088 486.264 402.386 485.985 391C485.469 369.932 483.746 349.031 483.996 328C484.865 254.975 490 182.027 490 109L426 117L431 369L390.6 303L314.681 178L284.95 129L272.471 110.028L254 109.911L209 112z"/>
<path style="fill:#958ab0; stroke:none;" d="M485 109L485 110L489 110L485 109M490 109L490 118L491 118L490 109M228 110L228 111L238 111L228 110M273 110L274 111L273 110M477 110L477 111L481 111L477 110M209 111L209 112L218 112L209 111M468 111L468 112L472 112L468 111M208 112L208 122L209 122L208 112M460 112L460 113L464 113L460 112M275 113L276 114L275 113M452 113L452 114L456 114L452 113M444 114L444 115L448 115L444 114M276 115L277 116L276 115M436 115L436 116L440 116L436 115M277 116L278 117L277 116M428 116L428 117L432 117L428 116M425 117L425 127L426 127L425 117M278 118L279 119L278 118M279 120L280 121L279 120M280 121L281 122L280 121M281 123L282 124L281 123M282 125L283 126L282 125M283 126L284 127L283 126M284 128L285 129L284 128M286 131L287 132L286 131M287 133L288 134L287 133M489 135L489 151L490 151L489 135M289 136L290 137L289 136M290 138L291 139L290 138M209 141L209 159L210 159L209 141M292 141L293 142L292 141M293 143L294 144L293 143M294 144L295 145L294 144M295 146L296 147L295 146M296 148L297 149L296 148M297 149L298 150L297 149M298 151L299 152L298 151M426 151L426 174L427 174L426 151M300 154L301 155L300 154M301 156L302 157L301 156M303 159L304 160L303 159M304 161L305 162L304 161M306 164L307 165L306 164M307 166L308 167L307 166M308 167L309 168L308 167M488 168L488 184L489 184L488 168M309 169L310 170L309 169M310 171L311 172L310 171M311 172L312 173L311 172M312 174L313 175L312 174M313 176L314 177L313 176M314 177L315 178L314 177M210 178L210 196L211 196L210 178M315 179L316 180L315 179M317 182L318 183L317 182M318 184L319 185L318 184M320 187L321 188L320 187M321 189L322 190L321 189M323 192L324 193L323 192M324 194L325 195L324 194M325 195L326 196L325 195M326 197L327 198L326 197M427 198L427 222L428 222L427 198M327 199L328 200L327 199M328 200L329 201L328 200M487 201L487 218L488 218L487 201M329 202L330 203L329 202M330 204L331 205L330 204M331 205L332 206L331 205M332 207L333 208L332 207M334 210L335 211L334 210M335 212L336 213L335 212M211 215L211 233L212 233L211 215M337 215L338 216L337 215M338 217L339 218L338 217M340 220L341 221L340 220M341 222L342 223L341 222M267 223L267 342L268 342L268 259L267 223M342 223L343 224L342 223z"/>
<path style="fill:#462698; stroke:none;" d="M268 224L268 281L304 282C295.202 263.179 281.649 239.653 268 224z"/>
<path style="fill:#958ab0; stroke:none;" d="M269 225L270 226L269 225M343 225L344 226L343 225M270 227L271 228L270 227M344 227L345 228L344 227M271 228L272 229L271 228M345 228L346 229L345 228M272 230L273 231L272 230M346 230L347 231L346 230M347 232L348 233L347 232M274 233L275 234L274 233M348 233L349 234L348 233M486 234L486 251L487 251L486 234M275 235L276 236L275 235M349 235L350 236L349 235M276 236L277 237L276 236M277 238L278 239L277 238M351 238L352 239L351 238M278 240L279 241L278 240M352 240L353 241L352 240M279 241L280 242L279 241M280 243L281 244L280 243M354 243L355 244L354 243M355 245L356 246L355 245M282 246L283 247L282 246M428 246L428 269L429 269L428 246M283 248L284 249L283 248M357 248L358 249L357 248M284 249L285 250L284 249M358 250L359 251L358 250M285 251L286 252L285 251M359 251L360 252L359 251M212 252L212 270L213 270L212 252M360 253L361 254L360 253M287 254L288 255L287 254z"/>
<path style="fill:#361e74; stroke:none;" d="M43 255L44 256L43 255z"/>
<path style="fill:#958ab0; stroke:none;" d="M361 255L362 256L361 255M288 256L289 257L288 256M362 256L363 257L362 256M363 258L364 259L363 258M290 259L291 260L290 259M364 260L365 261L364 260z"/>
<path style="fill:#361e74; stroke:none;" d="M40 261L41 262L40 261z"/>
<path style="fill:#958ab0; stroke:none;" d="M291 261L292 262L291 261M365 261L366 262L365 261z"/>
<path style="fill:#361e74; stroke:none;" d="M857 261L858 262L857 261z"/>
<path style="fill:#958ab0; stroke:none;" d="M292 262L293 263L292 262M366 263L367 264L366 263M293 264L294 265L293 264z"/>
<path style="fill:#361e74; stroke:none;" d="M39 265L40 266L39 265z"/>
<path style="fill:#958ab0; stroke:none;" d="M368 266L369 267L368 266M295 267L296 268L295 267M485 267L485 284L486 284L485 267z"/>
<path style="fill:#361e74; stroke:none;" d="M859 267L860 268L859 267M37.3333 268.667L37.6667 269.333L37.3333 268.667z"/>
<path style="fill:#958ab0; stroke:none;" d="M369 268L370 269L369 268z"/>
<path style="fill:#361e74; stroke:none;" d="M860.333 268.667L860.667 269.333L860.333 268.667z"/>
<path style="fill:#958ab0; stroke:none;" d="M296 269L297 270L296 269z"/>
<path style="fill:#361e74; stroke:none;" d="M36 270L37 271L36 270z"/>
<path style="fill:#958ab0; stroke:none;" d="M297 270L298 271L297 270z"/>
<path style="fill:#361e74; stroke:none;" d="M861 270L862 271L861 270z"/>
<path style="fill:#958ab0; stroke:none;" d="M371 271L372 272L371 271M298 272L299 273L298 272M372 273L373 274L372 273z"/>
<path style="fill:#361e74; stroke:none;" d="M34 275L35 276L34 275z"/>
<path style="fill:#958ab0; stroke:none;" d="M300 275L301 276L300 275z"/>
<path style="fill:#361e74; stroke:none;" d="M863 275L864 276L863 275z"/>
<path style="fill:#958ab0; stroke:none;" d="M374 276L375 277L374 276z"/>
<path style="fill:#361e74; stroke:none;" d="M34 277L35 278L34 277z"/>
<path style="fill:#958ab0; stroke:none;" d="M301 277L302 278L301 277z"/>
<path style="fill:#361e74; stroke:none;" d="M863 277L864 278L863 277M33 278L34 279L33 278z"/>
<path style="fill:#958ab0; stroke:none;" d="M375 278L376 279L375 278z"/>
<path style="fill:#361e74; stroke:none;" d="M864 278L865 279L864 278z"/>
<path style="fill:#958ab0; stroke:none;" d="M376 279L377 280L376 279M303 280L304 281L303 280z"/>
<path style="fill:#361e74; stroke:none;" d="M867 282L486 281C486 318.856 483.228 356.152 486.83 394C487.895 405.184 485.031 419.357 488.818 430C496.67 452.065 515.129 473.881 527.2 494C551.866 535.112 576.764 576.118 601.811 617C614.823 638.239 630.357 659.496 641 682L642 682L637.985 494L636.996 448L637.603 431.742L654 428.576L702 423L695.004 650L701 781L656 790.199L638.329 792.799L625.424 774L594.576 724L480 539L479 539C479 599.179 478.806 659.059 482.91 719C484.548 742.919 482.624 768.425 487 792L419 792C427.991 720.86 423.853 648.387 423.004 577C422.718 552.955 422.09 528.991 421.039 505C420.548 493.769 423.099 480.853 419.671 470C416.488 459.924 408.001 449.955 402.424 441C390.394 421.685 378.409 402.343 366.424 383C351.556 359.003 336.559 335.072 321.811 311C317.041 303.214 310.733 286.668 302.79 282.028C295.06 277.512 276.895 281 268 281L272.91 425L276 478L208 478L213.961 362L213 281L81 281L46 281C42.2606 281 35.7294 279.771 32.51 282.028C27.2225 285.735 23.9955 301.956 22.0008 308C13.5238 333.684 7.55272 360.239 3.72917 387C-13.4093 506.954 20.8858 630.304 94.6512 726C138.76 783.222 197.466 828.302 263 858.309C283.223 867.569 305.916 877.995 328 881.674C341.032 883.846 355.791 882 369 882L450 882L531 882C543.092 882 557.134 884.038 569 882.012C586.048 879.1 603.025 871.589 619 865.2C667.804 845.681 711.602 816.845 751 782.285C814.078 726.954 858.681 651.228 881.709 571C900.312 506.191 903.807 435.276 891.389 369C885.77 339.013 873.94 311.35 867 282z"/>
<path style="fill:#958ab0; stroke:none;" d="M377 281L378 282L377 281z"/>
<path style="fill:#361e74; stroke:none;" d="M378 281L429 366L430 347L429 302L427.258 282.028L414 281L378 281z"/>
<path style="fill:#958ab0; stroke:none;" d="M304 282L305 283L304 282z"/>
<path style="fill:#462698; stroke:none;" d="M378 282L379 283L378 282z"/>
<path style="fill:#958ab0; stroke:none;" d="M305 283L306 284L305 283M378 283L379 284L378 283z"/>
<path style="fill:#462698; stroke:none;" d="M305 284L306 285L305 284z"/>
<path style="fill:#958ab0; stroke:none;" d="M379 284L380 285L379 284z"/>
<path style="fill:#462698; stroke:none;" d="M485 284L485 294L486 294L485 284z"/>
<path style="fill:#958ab0; stroke:none;" d="M306 285L307 286L306 285z"/>
<path style="fill:#462698; stroke:none;" d="M380 285L381 286L380 285M306 286L307 287L306 286z"/>
<path style="fill:#958ab0; stroke:none;" d="M380 286L381 287L380 286z"/>
<path style="fill:#462698; stroke:none;" d="M307 287L308 288L307 287M381 287L383 289L381 287z"/>
<path style="fill:#958ab0; stroke:none;" d="M308 288L309 289L308 288M381 288L382 289L381 288M213 289L213 307L214 307L213 289z"/>
<path style="fill:#462698; stroke:none;" d="M308 289L309 290L308 289z"/>
<path style="fill:#958ab0; stroke:none;" d="M382 289L383 290L382 289M309 290L311 292L309 290z"/>
<path style="fill:#462698; stroke:none;" d="M383 290L384 291L383 290M28 291L29 292L28 291M309 291L310 292L309 291z"/>
<path style="fill:#958ab0; stroke:none;" d="M383 291L384 292L383 291z"/>
<path style="fill:#462698; stroke:none;" d="M869 291L870 292L869 291M310 292L311 293L310 292M384 292L385 293L384 292M27 293L28 294L27 293z"/>
<path style="fill:#958ab0; stroke:none;" d="M311 293L312 294L311 293z"/>
<path style="fill:#462698; stroke:none;" d="M385 293L386 294L385 293z"/>
<path style="fill:#958ab0; stroke:none;" d="M429 293L429 316L430 316L429 293z"/>
<path style="fill:#462698; stroke:none;" d="M870 293L871 294L870 293M311 294L312 295L311 294z"/>
<path style="fill:#958ab0; stroke:none;" d="M385 294L386 295L385 294M312 295L313 296L312 295z"/>
<path style="fill:#462698; stroke:none;" d="M386 295L387 296L386 295M26 296L27 297L26 296z"/>
<path style="fill:#958ab0; stroke:none;" d="M313 296L314 297L313 296M386 296L387 297L386 296z"/>
<path style="fill:#462698; stroke:none;" d="M871 296L872 297L871 296M313 297L314 298L313 297M387 297L388 298L387 297z"/>
<path style="fill:#958ab0; stroke:none;" d="M314 298L315 299L314 298z"/>
<path style="fill:#462698; stroke:none;" d="M388 298L389 299L388 298M314 299L315 300L314 299z"/>
<path style="fill:#958ab0; stroke:none;" d="M388 299L389 300L388 299z"/>
<path style="fill:#462698; stroke:none;" d="M315 300L316 301L315 300M389 300L390 301L389 300z"/>
<path style="fill:#958ab0; stroke:none;" d="M316 301L317 302L316 301M389 301L390 302L389 301M484 301L484 317L485 317L484 301z"/>
<path style="fill:#462698; stroke:none;" d="M316 302L317 303L316 302M390 302L391 303L390 302z"/>
<path style="fill:#958ab0; stroke:none;" d="M317 303L318 304L317 303z"/>
<path style="fill:#462698; stroke:none;" d="M391 303L392 304L391 303z"/>
<path style="fill:#958ab0; stroke:none;" d="M318 304L319 305L318 304M391 304L392 305L391 304z"/>
<path style="fill:#462698; stroke:none;" d="M318 305L319 306L318 305M392 305L393 306L392 305z"/>
<path style="fill:#958ab0; stroke:none;" d="M319 306L320 307L319 306M392 306L393 307L392 306z"/>
<path style="fill:#462698; stroke:none;" d="M213 307L213 318L214 318L213 307M319 307L320 308L319 307z"/>
<path style="fill:#958ab0; stroke:none;" d="M393 307L394 308L393 307z"/>
<path style="fill:#462698; stroke:none;" d="M320 308L321 309L320 308M394 308L395 309L394 308z"/>
<path style="fill:#958ab0; stroke:none;" d="M321 309L322 310L321 309M394 309L395 310L394 309z"/>
<path style="fill:#462698; stroke:none;" d="M321 310L322 311L321 310M395 310L396 311L395 310z"/>
<path style="fill:#958ab0; stroke:none;" d="M322 311L324 313L322 311M395 311L396 312L395 311z"/>
<path style="fill:#462698; stroke:none;" d="M322 312L323 313L322 312z"/>
<path style="fill:#958ab0; stroke:none;" d="M396 312L397 313L396 312z"/>
<path style="fill:#462698; stroke:none;" d="M323 313L324 314L323 313M397 313L398 314L397 313z"/>
<path style="fill:#958ab0; stroke:none;" d="M324 314L325 315L324 314M397 314L398 315L397 314z"/>
<path style="fill:#462698; stroke:none;" d="M324 315L325 316L324 315M398 315L399 316L398 315M19 316L20 317L19 316z"/>
<path style="fill:#958ab0; stroke:none;" d="M325 316L326 317L325 316M398 316L399 317L398 316z"/>
<path style="fill:#462698; stroke:none;" d="M429 316L429 329L430 329L429 316M878 316L879 317L878 316z"/>
<path style="fill:#958ab0; stroke:none;" d="M326 317L327 318L326 317M399 317L400 318L399 317z"/>
<path style="fill:#462698; stroke:none;" d="M484 317L484 327L485 327L484 317M326 318L327 319L326 318M400 318L401 319L400 318z"/>
<path style="fill:#958ab0; stroke:none;" d="M327 319L328 320L327 319M400 319L401 320L400 319z"/>
<path style="fill:#462698; stroke:none;" d="M327 320L328 321L327 320M401 320L402 321L401 320M328 321L329 322L328 321M402 321L403 322L402 321z"/>
<path style="fill:#958ab0; stroke:none;" d="M329 322L330 323L329 322M402 322L403 323L402 322z"/>
<path style="fill:#462698; stroke:none;" d="M329 323L330 324L329 323M403 323L404 324L403 323z"/>
<path style="fill:#958ab0; stroke:none;" d="M330 324L331 325L330 324M403 324L404 325L403 324M331 325L332 326L331 325z"/>
<path style="fill:#462698; stroke:none;" d="M404 325L405 326L404 325z"/>
<path style="fill:#958ab0; stroke:none;" d="M214 326L214 343L215 343L214 326z"/>
<path style="fill:#462698; stroke:none;" d="M331 326L332 327L331 326M405 326L406 327L405 326z"/>
<path style="fill:#958ab0; stroke:none;" d="M332 327L333 328L332 327M405 327L406 328L405 327z"/>
<path style="fill:#462698; stroke:none;" d="M332 328L333 329L332 328M406 328L407 329L406 328M333 329L334 330L333 329z"/>
<path style="fill:#958ab0; stroke:none;" d="M406 329L407 330L406 329M334 330L335 331L334 330z"/>
<path style="fill:#462698; stroke:none;" d="M407 330L408 331L407 330M334 331L335 332L334 331M408 331L409 332L408 331z"/>
<path style="fill:#958ab0; stroke:none;" d="M335 332L336 333L335 332M408 332L409 333L408 332z"/>
<path style="fill:#462698; stroke:none;" d="M409 333L410 334L409 333M336 334L337 335L336 334z"/>
<path style="fill:#958ab0; stroke:none;" d="M409 334L410 335L409 334M483 334L483 343L484 343L483 334M337 335L338 336L337 335M410 335L411 336L410 335z"/>
<path style="fill:#462698; stroke:none;" d="M337 336L338 337L337 336M411 336L412 337L411 336z"/>
<path style="fill:#958ab0; stroke:none;" d="M338 337L339 338L338 337M411 337L412 338L411 337M339 338L340 339L339 338z"/>
<path style="fill:#462698; stroke:none;" d="M412 338L413 339L412 338M339 339L340 340L339 339z"/>
<path style="fill:#958ab0; stroke:none;" d="M412 339L413 340L412 339M340 340L341 341L340 340M413 340L414 341L413 340M430 340L430 363L431 363L430 340z"/>
<path style="fill:#462698; stroke:none;" d="M414 341L415 342L414 341M341 342L342 343L341 342z"/>
<path style="fill:#958ab0; stroke:none;" d="M414 342L415 343L414 342z"/>
<path style="fill:#462698; stroke:none;" d="M214 343L214 351L215 351L214 343z"/>
<path style="fill:#958ab0; stroke:none;" d="M342 343L343 344L342 343z"/>
<path style="fill:#462698; stroke:none;" d="M415 343L416 344L415 343M342 344L343 345L342 344z"/>
<path style="fill:#958ab0; stroke:none;" d="M415 344L416 345L415 344M343 345L344 346L343 345M416 345L417 346L416 345M344 346L345 347L344 346z"/>
<path style="fill:#462698; stroke:none;" d="M417 346L418 347L417 346M268 347L268 352L269 352L268 347M344 347L345 348L344 347z"/>
<path style="fill:#958ab0; stroke:none;" d="M417 347L418 348L417 347M345 348L346 349L345 348z"/>
<path style="fill:#462698; stroke:none;" d="M418 348L419 349L418 348M484 348L484 354L485 354L484 348M345 349L346 350L345 349M346 350L347 351L346 350z"/>
<path style="fill:#958ab0; stroke:none;" d="M419 350L420 351L419 350M214 351L214 361L215 361L214 351M347 351L348 352L347 351z"/>
<path style="fill:#462698; stroke:none;" d="M420 351L421 352L420 351z"/>
<path style="fill:#958ab0; stroke:none;" d="M268 352L268 361L269 361L268 352z"/>
<path style="fill:#462698; stroke:none;" d="M347 352L348 353L347 352z"/>
<path style="fill:#958ab0; stroke:none;" d="M420 352L421 353L420 352M348 353L349 354L348 353z"/>
<path style="fill:#462698; stroke:none;" d="M421 353L422 354L421 353z"/>
<path style="fill:#958ab0; stroke:none;" d="M484 354L484 365L485 365L484 354z"/>
<path style="fill:#462698; stroke:none;" d="M349 355L350 356L349 355z"/>
<path style="fill:#958ab0; stroke:none;" d="M422 355L423 356L422 355M350 356L351 357L350 356z"/>
<path style="fill:#462698; stroke:none;" d="M423 356L424 357L423 356M350 357L351 358L350 357z"/>
<path style="fill:#958ab0; stroke:none;" d="M423 357L424 358L423 357M351 358L352 359L351 358z"/>
<path style="fill:#462698; stroke:none;" d="M424 358L425 359L424 358z"/>
<path style="fill:#958ab0; stroke:none;" d="M352 359L353 360L352 359z"/>
<path style="fill:#462698; stroke:none;" d="M425 359L426 360L425 359M352 360L353 361L352 360z"/>
<path style="fill:#958ab0; stroke:none;" d="M425 360L426 361L425 360M353 361L354 362L353 361z"/>
<path style="fill:#462698; stroke:none;" d="M426 361L427 362L426 361z"/>
<path style="fill:#958ab0; stroke:none;" d="M426 362L427 363L426 362z"/>
<path style="fill:#462698; stroke:none;" d="M354 363L355 364L354 363z"/>
<path style="fill:#958ab0; stroke:none;" d="M427 363L428 364L427 363z"/>
<path style="fill:#462698; stroke:none;" d="M430 363L430 368L431 368L430 363z"/>
<path style="fill:#958ab0; stroke:none;" d="M355 364L356 365L355 364z"/>
<path style="fill:#462698; stroke:none;" d="M428 364L429 365L428 364M269 365L269 371L270 371L269 365M355 365L356 366L355 365z"/>
<path style="fill:#958ab0; stroke:none;" d="M428 365L429 366L428 365z"/>
<path style="fill:#462698; stroke:none;" d="M213 366L213 372L214 372L213 366z"/>
<path style="fill:#958ab0; stroke:none;" d="M356 366L357 367L356 366M357 367L358 368L357 367M429 367L430 368L429 367z"/>
<path style="fill:#462698; stroke:none;" d="M357 368L358 369L357 368z"/>
<path style="fill:#958ab0; stroke:none;" d="M430 368L431 369L430 368M358 369L359 370L358 369z"/>
<path style="fill:#462698; stroke:none;" d="M358 370L359 371L358 370M485 370L485 376L486 376L485 370z"/>
<path style="fill:#958ab0; stroke:none;" d="M269 371L269 380L270 380L269 371z"/>
<path style="fill:#462698; stroke:none;" d="M359 371L360 372L359 371z"/>
<path style="fill:#958ab0; stroke:none;" d="M213 372L213 381L214 381L213 372M360 372L361 373L360 372z"/>
<path style="fill:#462698; stroke:none;" d="M360 373L361 374L360 373z"/>
<path style="fill:#958ab0; stroke:none;" d="M361 374L362 375L361 374z"/>
<path style="fill:#462698; stroke:none;" d="M362 376L363 377L362 376z"/>
<path style="fill:#958ab0; stroke:none;" d="M485 376L485 386L486 386L485 376M363 377L364 378L363 377z"/>
<path style="fill:#462698; stroke:none;" d="M363 378L364 379L363 378z"/>
<path style="fill:#958ab0; stroke:none;" d="M364 379L365 380L364 379M365 380L366 381L365 380z"/>
<path style="fill:#462698; stroke:none;" d="M365 381L366 382L365 381z"/>
<path style="fill:#958ab0; stroke:none;" d="M366 382L367 383L366 382z"/>
<path style="fill:#462698; stroke:none;" d="M366 383L367 384L366 383M270 384L270 389L271 389L270 384M367 384L368 385L367 384z"/>
<path style="fill:#958ab0; stroke:none;" d="M368 385L369 386L368 385z"/>
<path style="fill:#462698; stroke:none;" d="M212 386L212 392L213 392L212 386M368 386L369 387L368 386z"/>
<path style="fill:#958ab0; stroke:none;" d="M369 387L370 388L369 387M270 389L270 398L271 398L270 389z"/>
<path style="fill:#462698; stroke:none;" d="M370 389L371 390L370 389z"/>
<path style="fill:#958ab0; stroke:none;" d="M371 390L372 391L371 390z"/>
<path style="fill:#462698; stroke:none;" d="M371 391L372 392L371 391M486 391L486 398L487 398L486 391z"/>
<path style="fill:#958ab0; stroke:none;" d="M212 392L212 402L213 402L212 392M372 392L373 393L372 392M373 393L374 394L373 393z"/>
<path style="fill:#462698; stroke:none;" d="M373 394L374 395L373 394z"/>
<path style="fill:#958ab0; stroke:none;" d="M374 395L375 396L374 395z"/>
<path style="fill:#462698; stroke:none;" d="M375 397L376 398L375 397z"/>
<path style="fill:#958ab0; stroke:none;" d="M376 398L377 399L376 398M486 398L486 408L487 408L486 398z"/>
<path style="fill:#462698; stroke:none;" d="M376 399L377 400L376 399z"/>
<path style="fill:#958ab0; stroke:none;" d="M377 400L378 401L377 400M378 401L379 402L378 401z"/>
<path style="fill:#462698; stroke:none;" d="M378 402L379 403L378 402M271 403L271 408L272 408L271 403z"/>
<path style="fill:#958ab0; stroke:none;" d="M379 403L380 404L379 403z"/>
<path style="fill:#462698; stroke:none;" d="M380 405L381 406L380 405z"/>
<path style="fill:#958ab0; stroke:none;" d="M381 406L382 407L381 406z"/>
<path style="fill:#462698; stroke:none;" d="M211 407L211 412L212 412L211 407M381 407L382 408L381 407z"/>
<path style="fill:#958ab0; stroke:none;" d="M271 408L271 417L272 417L271 408M382 408L383 409L382 408z"/>
<path style="fill:#462698; stroke:none;" d="M383 410L384 411L383 410z"/>
<path style="fill:#958ab0; stroke:none;" d="M384 411L385 412L384 411M211 412L211 422L212 422L211 412z"/>
<path style="fill:#462698; stroke:none;" d="M384 412L385 413L384 412z"/>
<path style="fill:#958ab0; stroke:none;" d="M385 413L386 414L385 413z"/>
<path style="fill:#462698; stroke:none;" d="M487 413L487 419L488 419L487 413z"/>
<path style="fill:#958ab0; stroke:none;" d="M386 414L387 415L386 414z"/>
<path style="fill:#462698; stroke:none;" d="M386 415L387 416L386 415z"/>
<path style="fill:#958ab0; stroke:none;" d="M387 416L388 417L387 416z"/>
<path style="fill:#462698; stroke:none;" d="M388 418L389 419L388 418z"/>
<path style="fill:#958ab0; stroke:none;" d="M389 419L390 420L389 419M487 419L487 428L488 428L487 419z"/>
<path style="fill:#462698; stroke:none;" d="M389 420L390 421L389 420M272 421L272 427L273 427L272 421z"/>
<path style="fill:#958ab0; stroke:none;" d="M390 421L391 422L390 421M391 422L392 423L391 422z"/>
<path style="fill:#462698; stroke:none;" d="M391 423L392 424L391 423M695.667 423.333L696.333 423.667L695.667 423.333z"/>
<path style="fill:#958ab0; stroke:none;" d="M697 423L697 424L701 424L701 438L702 438L702 423L697 423M392 424L393 425L392 424z"/>
<path style="fill:#462698; stroke:none;" d="M687.667 424.333L688.333 424.667L687.667 424.333z"/>
<path style="fill:#958ab0; stroke:none;" d="M689 424L689 425L693 425L689 424z"/>
<path style="fill:#462698; stroke:none;" d="M392 425L393 426L392 425M678 425L678 426L681 426L678 425z"/>
<path style="fill:#958ab0; stroke:none;" d="M681 425L681 426L685 426L681 425z"/>
<path style="fill:#462698; stroke:none;" d="M393 426L394 427L393 426M670 426L670 427L673 427L670 426z"/>
<path style="fill:#958ab0; stroke:none;" d="M673 426L673 427L676 427L673 426z"/>
<path style="fill:#462698; stroke:none;" d="M210 427L210 433L211 433L210 427z"/>
<path style="fill:#958ab0; stroke:none;" d="M272 427L272 435L273 435L272 427M394 427L395 428L394 427z"/>
<path style="fill:#462698; stroke:none;" d="M662.667 427.333L663.333 427.667L662.667 427.333z"/>
<path style="fill:#958ab0; stroke:none;" d="M664 427L664 428L668 428L664 427z"/>
<path style="fill:#462698; stroke:none;" d="M394 428L395 429L394 428M654.667 428.333L655.333 428.667L654.667 428.333z"/>
<path style="fill:#958ab0; stroke:none;" d="M656 428L656 429L660 429L656 428M395 429L396 430L395 429z"/>
<path style="fill:#462698; stroke:none;" d="M646.667 429.333L647.333 429.667L646.667 429.333z"/>
<path style="fill:#958ab0; stroke:none;" d="M648 429L648 430L652 430L648 429M488 430L489 431L488 430z"/>
<path style="fill:#462698; stroke:none;" d="M638.667 430.333L639.333 430.667L638.667 430.333z"/>
<path style="fill:#958ab0; stroke:none;" d="M640 430L640 431L644 431L640 430z"/>
<path style="fill:#462698; stroke:none;" d="M396 431L397 432L396 431M489 431L490 432L489 431M636 431L636 442L637 442L636 431z"/>
<path style="fill:#958ab0; stroke:none;" d="M397 432L398 433L397 432M489 432L490 433L489 432M210 433L210 442L211 442L210 433z"/>
<path style="fill:#462698; stroke:none;" d="M397 433L398 434L397 433M490 433L491 434L490 433z"/>
<path style="fill:#958ab0; stroke:none;" d="M398 434L399 435L398 434M399 435L400 436L399 435M491 435L492 436L491 435z"/>
<path style="fill:#462698; stroke:none;" d="M399 436L400 437L399 436M492 436L493 437L492 436z"/>
<path style="fill:#958ab0; stroke:none;" d="M400 437L401 438L400 437M492 437L493 438L492 437M493 438L494 439L493 438z"/>
<path style="fill:#462698; stroke:none;" d="M701 438L701 447L702 447L701 438M401 439L402 440L401 439M273 440L273 445L274 445L273 440z"/>
<path style="fill:#958ab0; stroke:none;" d="M402 440L403 441L402 440M494 440L495 441L494 440z"/>
<path style="fill:#462698; stroke:none;" d="M402 441L403 442L402 441M495 441L496 442L495 441z"/>
<path style="fill:#958ab0; stroke:none;" d="M403 442L404 443L403 442M495 442L496 443L495 442M404 443L405 444L404 443M496 443L497 444L496 443z"/>
<path style="fill:#462698; stroke:none;" d="M404 444L405 445L404 444M497 444L498 445L497 444z"/>
<path style="fill:#958ab0; stroke:none;" d="M273 445L273 454L274 454L273 445M405 445L406 446L405 445M497 445L498 446L497 445z"/>
<path style="fill:#462698; stroke:none;" d="M498 446L499 447L498 446M209 447L209 453L210 453L209 447M406 447L407 448L406 447z"/>
<path style="fill:#958ab0; stroke:none;" d="M498 447L499 448L498 447M407 448L408 449L407 448M499 448L500 449L499 448z"/>
<path style="fill:#462698; stroke:none;" d="M407 449L408 450L407 449M500 449L501 450L500 449z"/>
<path style="fill:#958ab0; stroke:none;" d="M408 450L409 451L408 450M500 450L501 451L500 450z"/>
<path style="fill:#462698; stroke:none;" d="M501 451L502 452L501 451M409 452L410 453L409 452z"/>
<path style="fill:#958ab0; stroke:none;" d="M209 453L209 462L210 462L209 453M410 453L411 454L410 453M502 453L503 454L502 453z"/>
<path style="fill:#462698; stroke:none;" d="M410 454L411 455L410 454M503 454L504 455L503 454z"/>
<path style="fill:#958ab0; stroke:none;" d="M411 455L412 456L411 455M503 455L504 456L503 455M637 455L637 477L638 477L637 455M412 456L413 457L412 456z"/>
<path style="fill:#462698; stroke:none;" d="M504 456L505 457L504 456z"/>
<path style="fill:#958ab0; stroke:none;" d="M700 456L700 471L701 471L700 456z"/>
<path style="fill:#462698; stroke:none;" d="M412 457L413 458L412 457z"/>
<path style="fill:#958ab0; stroke:none;" d="M413 458L414 459L413 458M505 458L506 459L505 458z"/>
<path style="fill:#462698; stroke:none;" d="M274 459L274 464L275 464L274 459M506 459L507 460L506 459M414 460L415 461L414 460z"/>
<path style="fill:#958ab0; stroke:none;" d="M506 460L507 461L506 460M415 461L416 462L415 461z"/>
<path style="fill:#462698; stroke:none;" d="M507 461L508 462L507 461M415 462L416 463L415 462z"/>
<path style="fill:#958ab0; stroke:none;" d="M416 463L417 464L416 463M508 463L509 464L508 463M274 464L274 472L275 472L274 464z"/>
<path style="fill:#462698; stroke:none;" d="M509 464L510 465L509 464M417 465L418 466L417 465z"/>
<path style="fill:#958ab0; stroke:none;" d="M509 465L510 466L509 465M418 466L419 467L418 466M510 466L511 467L510 466z"/>
<path style="fill:#462698; stroke:none;" d="M208 468L208 473L209 473L208 468z"/>
<path style="fill:#958ab0; stroke:none;" d="M419 468L420 469L419 468M511 468L512 469L511 468M420 469L421 470L420 469z"/>
<path style="fill:#462698; stroke:none;" d="M512 469L513 470L512 469M420 470L420 474L421 474L420 470z"/>
<path style="fill:#958ab0; stroke:none;" d="M512 470L513 471L512 470M513 471L514 472L513 471z"/>
<path style="fill:#462698; stroke:none;" d="M700 471L700 480L701 480L700 471M514 472L515 473L514 472z"/>
<path style="fill:#958ab0; stroke:none;" d="M208 473L208 478L209 478L208 473M514 473L515 474L514 473z"/>
<path style="fill:#462698; stroke:none;" d="M515 474L516 475L515 474z"/>
<path style="fill:#958ab0; stroke:none;" d="M516 476L517 477L516 476z"/>
<path style="fill:#462698; stroke:none;" d="M275 477L276 478L275 477M517 477L518 478L517 477M637 477L637 489L638 489L637 477z"/>
<path style="fill:#958ab0; stroke:none;" d="M517 478L518 479L517 478z"/>
<path style="fill:#0e081d; stroke:none;" d="M0 479L0 898L898 898L898 479L897 479C897 520.391 885.425 564.441 871.05 603C822.004 734.557 708.462 847.315 570.039 881.532C557.083 884.735 540.364 882 527 882L436 882L365 882C353.384 882 340.463 883.584 329 881.674C297.217 876.379 264.08 859.696 236 844.525C137.677 791.406 61.0053 701.604 24.3441 596C15.6545 570.969 9.39977 545.129 5.08025 519C3.08399 506.925 4.63471 490.045 0 479z"/>
<path style="fill:#462698; stroke:none;" d="M518 479L519 480L518 479z"/>
<path style="fill:#958ab0; stroke:none;" d="M519 481L520 482L519 481z"/>
<path style="fill:#462698; stroke:none;" d="M520 482L521 483L520 482z"/>
<path style="fill:#958ab0; stroke:none;" d="M520 483L521 484L520 483M421 484L421 501L422 501L421 484z"/>
<path style="fill:#462698; stroke:none;" d="M521 484L522 485L521 484z"/>
<path style="fill:#958ab0; stroke:none;" d="M522 486L523 487L522 486z"/>
<path style="fill:#462698; stroke:none;" d="M523 487L524 488L523 487z"/>
<path style="fill:#958ab0; stroke:none;" d="M523 488L524 489L523 488z"/>
<path style="fill:#462698; stroke:none;" d="M524 489L525 490L524 489z"/>
<path style="fill:#958ab0; stroke:none;" d="M699 489L699 504L700 504L699 489M525 491L526 492L525 491z"/>
<path style="fill:#462698; stroke:none;" d="M526 492L527 493L526 492z"/>
<path style="fill:#958ab0; stroke:none;" d="M526 493L527 494L526 493M527 494L528 495L527 494M528 496L529 497L528 496z"/>
<path style="fill:#462698; stroke:none;" d="M529 497L530 498L529 497z"/>
<path style="fill:#958ab0; stroke:none;" d="M529 498L530 499L529 498M530 499L531 500L530 499z"/>
<path style="fill:#462698; stroke:none;" d="M421 501L421 510L422 510L421 501z"/>
<path style="fill:#958ab0; stroke:none;" d="M531 501L532 502L531 501z"/>
<path style="fill:#462698; stroke:none;" d="M532 502L533 503L532 502z"/>
<path style="fill:#958ab0; stroke:none;" d="M638 502L638 524L639 524L638 502M533 504L534 505L533 504z"/>
<path style="fill:#462698; stroke:none;" d="M699 504L699 513L700 513L699 504M534 505L535 506L534 505z"/>
<path style="fill:#958ab0; stroke:none;" d="M534 506L535 507L534 506z"/>
<path style="fill:#462698; stroke:none;" d="M535 507L536 508L535 507z"/>
<path style="fill:#958ab0; stroke:none;" d="M536 509L537 510L536 509z"/>
<path style="fill:#462698; stroke:none;" d="M537 510L538 511L537 510z"/>
<path style="fill:#958ab0; stroke:none;" d="M537 511L538 512L537 511z"/>
<path style="fill:#462698; stroke:none;" d="M538 512L539 513L538 512z"/>
<path style="fill:#958ab0; stroke:none;" d="M539 514L540 515L539 514z"/>
<path style="fill:#462698; stroke:none;" d="M540 515L541 516L540 515z"/>
<path style="fill:#958ab0; stroke:none;" d="M540 516L541 517L540 516z"/>
<path style="fill:#462698; stroke:none;" d="M541 517L542 518L541 517z"/>
<path style="fill:#958ab0; stroke:none;" d="M542 519L543 520L542 519z"/>
<path style="fill:#462698; stroke:none;" d="M543 520L544 521L543 520z"/>
<path style="fill:#958ab0; stroke:none;" d="M422 521L422 538L423 538L422 521M543 521L544 522L543 521M544 522L545 523L544 522M698 522L698 537L699 537L698 522M545 524L546 525L545 524z"/>
<path style="fill:#462698; stroke:none;" d="M638 524L638 536L639 536L638 524M546 525L547 526L546 525z"/>
<path style="fill:#958ab0; stroke:none;" d="M546 526L547 527L546 526M547 527L548 528L547 527M548 529L549 530L548 529z"/>
<path style="fill:#462698; stroke:none;" d="M549 530L550 531L549 530z"/>
<path style="fill:#958ab0; stroke:none;" d="M550 532L551 533L550 532z"/>
<path style="fill:#462698; stroke:none;" d="M551 533L552 534L551 533z"/>
<path style="fill:#958ab0; stroke:none;" d="M551 534L552 535L551 534z"/>
<path style="fill:#462698; stroke:none;" d="M552 535L553 536L552 535z"/>
<path style="fill:#958ab0; stroke:none;" d="M479 537L480 538L479 537M553 537L554 538L553 537z"/>
<path style="fill:#462698; stroke:none;" d="M698 537L698 546L699 546L698 537M422 538L422 547L423 547L422 538M479 538L480 539L479 538M554 538L555 539L554 538z"/>
<path style="fill:#958ab0; stroke:none;" d="M480 539L481 540L480 539M554 539L555 540L554 539z"/>
<path style="fill:#462698; stroke:none;" d="M555 540L556 541L555 540M481 541L482 542L481 541z"/>
<path style="fill:#958ab0; stroke:none;" d="M482 542L483 543L482 542M556 542L557 543L556 542z"/>
<path style="fill:#462698; stroke:none;" d="M557 543L558 544L557 543M483 544L484 545L483 544z"/>
<path style="fill:#958ab0; stroke:none;" d="M557 544L558 545L557 544M484 545L485 546L484 545z"/>
<path style="fill:#462698; stroke:none;" d="M558 545L559 546L558 545M484 546L485 547L484 546z"/>
<path style="fill:#958ab0; stroke:none;" d="M485 547L486 548L485 547M559 547L560 548L559 547z"/>
<path style="fill:#462698; stroke:none;" d="M560 548L561 549L560 548M486 549L487 550L486 549z"/>
<path style="fill:#958ab0; stroke:none;" d="M560 549L561 550L560 549M639 549L639 571L640 571L639 549M487 550L488 551L487 550M561 550L562 551L561 550z"/>
<path style="fill:#462698; stroke:none;" d="M487 551L488 552L487 551z"/>
<path style="fill:#958ab0; stroke:none;" d="M488 552L489 553L488 552M562 552L563 553L562 552M489 553L490 554L489 553z"/>
<path style="fill:#462698; stroke:none;" d="M563 553L564 554L563 553M489 554L490 555L489 554z"/>
<path style="fill:#958ab0; stroke:none;" d="M563 554L564 555L563 554M490 555L491 556L490 555M564 555L565 556L564 555M697 555L697 570L698 570L697 555z"/>
<path style="fill:#462698; stroke:none;" d="M491 557L492 558L491 557z"/>
<path style="fill:#958ab0; stroke:none;" d="M565 557L566 558L565 557M423 558L423 575L424 575L423 558M492 558L493 559L492 558z"/>
<path style="fill:#462698; stroke:none;" d="M566 558L567 559L566 558M492 559L493 560L492 559z"/>
<path style="fill:#958ab0; stroke:none;" d="M493 560L494 561L493 560M567 560L568 561L567 560z"/>
<path style="fill:#462698; stroke:none;" d="M568 561L569 562L568 561M494 562L495 563L494 562z"/>
<path style="fill:#958ab0; stroke:none;" d="M568 562L569 563L568 562M495 563L496 564L495 563z"/>
<path style="fill:#462698; stroke:none;" d="M569 563L570 564L569 563z"/>
<path style="fill:#958ab0; stroke:none;" d="M496 565L497 566L496 565M570 565L571 566L570 565M497 566L498 567L497 566z"/>
<path style="fill:#462698; stroke:none;" d="M571 566L572 567L571 566M497 567L498 568L497 567z"/>
<path style="fill:#958ab0; stroke:none;" d="M571 567L572 568L571 567M498 568L499 569L498 568z"/>
<path style="fill:#462698; stroke:none;" d="M572 568L573 569L572 568M499 570L500 571L499 570z"/>
<path style="fill:#958ab0; stroke:none;" d="M573 570L574 571L573 570z"/>
<path style="fill:#462698; stroke:none;" d="M697 570L697 579L698 579L697 570z"/>
<path style="fill:#958ab0; stroke:none;" d="M500 571L501 572L500 571z"/>
<path style="fill:#462698; stroke:none;" d="M574 571L575 572L574 571M639 571L639 583L640 583L639 571z"/>
<path style="fill:#958ab0; stroke:none;" d="M574 572L575 573L574 572M501 573L502 574L501 573z"/>
<path style="fill:#462698; stroke:none;" d="M575 573L576 574L575 573z"/>
<path style="fill:#958ab0; stroke:none;" d="M502 574L503 575L502 574z"/>
<path style="fill:#462698; stroke:none;" d="M423 575L423 584L424 584L423 575M502 575L503 576L502 575z"/>
<path style="fill:#958ab0; stroke:none;" d="M576 575L577 576L576 575M503 576L504 577L503 576z"/>
<path style="fill:#462698; stroke:none;" d="M577 576L578 577L577 576z"/>
<path style="fill:#958ab0; stroke:none;" d="M577 577L578 578L577 577z"/>
<path style="fill:#462698; stroke:none;" d="M504 578L505 579L504 578z"/>
<path style="fill:#958ab0; stroke:none;" d="M578 578L579 579L578 578M505 579L506 580L505 579z"/>
<path style="fill:#462698; stroke:none;" d="M505 580L506 581L505 580z"/>
<path style="fill:#958ab0; stroke:none;" d="M579 580L580 581L579 580M506 581L507 582L506 581z"/>
<path style="fill:#462698; stroke:none;" d="M580 581L581 582L580 581z"/>
<path style="fill:#958ab0; stroke:none;" d="M580 582L581 583L580 582z"/>
<path style="fill:#462698; stroke:none;" d="M507 583L508 584L507 583z"/>
<path style="fill:#958ab0; stroke:none;" d="M581 583L582 584L581 583M508 584L509 585L508 584M582 585L583 586L582 585M509 586L510 587L509 586z"/>
<path style="fill:#462698; stroke:none;" d="M583 586L584 587L583 586z"/>
<path style="fill:#958ab0; stroke:none;" d="M510 587L511 588L510 587z"/>
<path style="fill:#462698; stroke:none;" d="M510 588L511 589L510 588z"/>
<path style="fill:#958ab0; stroke:none;" d="M584 588L585 589L584 588M696 588L696 604L697 604L696 588M511 589L512 590L511 589z"/>
<path style="fill:#462698; stroke:none;" d="M585 589L586 590L585 589z"/>
<path style="fill:#958ab0; stroke:none;" d="M585 590L586 591L585 590z"/>
<path style="fill:#462698; stroke:none;" d="M512 591L513 592L512 591M586 591L587 592L586 591z"/>
<path style="fill:#958ab0; stroke:none;" d="M513 592L514 593L513 592z"/>
<path style="fill:#462698; stroke:none;" d="M513 593L514 594L513 593z"/>
<path style="fill:#958ab0; stroke:none;" d="M587 593L588 594L587 593M514 594L515 595L514 594z"/>
<path style="fill:#462698; stroke:none;" d="M588 594L589 595L588 594z"/>
<path style="fill:#958ab0; stroke:none;" d="M424 595L424 612L425 612L424 595M515 595L516 596L515 595M588 595L589 596L588 595z"/>
<path style="fill:#462698; stroke:none;" d="M515 596L516 597L515 596M589 596L590 597L589 596z"/>
<path style="fill:#958ab0; stroke:none;" d="M516 597L517 598L516 597M640 597L640 618L641 618L640 597M590 598L591 599L590 598z"/>
<path style="fill:#462698; stroke:none;" d="M517 599L518 600L517 599M591 599L592 600L591 599z"/>
<path style="fill:#958ab0; stroke:none;" d="M518 600L519 601L518 600M591 600L592 601L591 600z"/>
<path style="fill:#462698; stroke:none;" d="M518 601L519 602L518 601M592 601L593 602L592 601z"/>
<path style="fill:#958ab0; stroke:none;" d="M519 602L520 603L519 602M593 603L594 604L593 603z"/>
<path style="fill:#462698; stroke:none;" d="M520 604L521 605L520 604M594 604L595 605L594 604M696 604L696 611L697 611L696 604z"/>
<path style="fill:#958ab0; stroke:none;" d="M521 605L522 606L521 605M594 605L595 606L594 605M595 606L596 607L595 606M522 607L523 608L522 607M523 608L524 609L523 608M596 608L597 609L596 608z"/>
<path style="fill:#462698; stroke:none;" d="M523 609L524 610L523 609M597 609L598 610L597 609z"/>
<path style="fill:#958ab0; stroke:none;" d="M524 610L525 611L524 610M597 610L598 611L597 610M598 611L599 612L598 611z"/>
<path style="fill:#462698; stroke:none;" d="M424 612L424 620L425 620L424 612M525 612L526 613L525 612z"/>
<path style="fill:#958ab0; stroke:none;" d="M526 613L527 614L526 613M599 613L600 614L599 613z"/>
<path style="fill:#462698; stroke:none;" d="M526 614L527 615L526 614M600 614L601 615L600 614z"/>
<path style="fill:#958ab0; stroke:none;" d="M527 615L528 616L527 615M601 616L602 617L601 616z"/>
<path style="fill:#462698; stroke:none;" d="M528 617L529 618L528 617z"/>
<path style="fill:#958ab0; stroke:none;" d="M529 618L530 619L529 618M602 618L603 619L602 618z"/>
<path style="fill:#462698; stroke:none;" d="M640 618L640 629L641 629L640 618M603 619L604 620L603 619z"/>
<path style="fill:#958ab0; stroke:none;" d="M530 620L531 621L530 620M531 621L532 622L531 621M604 621L605 622L604 621z"/>
<path style="fill:#462698; stroke:none;" d="M531 622L532 623L531 622M605 622L606 623L605 622z"/>
<path style="fill:#958ab0; stroke:none;" d="M695 622L695 637L696 637L695 622M532 623L533 624L532 623M605 623L606 624L605 623z"/>
<path style="fill:#462698; stroke:none;" d="M606 624L607 625L606 624M533 625L534 626L533 625z"/>
<path style="fill:#958ab0; stroke:none;" d="M534 626L535 627L534 626M607 626L608 627L607 626z"/>
<path style="fill:#462698; stroke:none;" d="M608 627L609 628L608 627z"/>
<path style="fill:#958ab0; stroke:none;" d="M535 628L536 629L535 628M608 628L609 629L608 628M536 629L537 630L536 629z"/>
<path style="fill:#462698; stroke:none;" d="M609 629L610 630L609 629M536 630L537 631L536 630z"/>
<path style="fill:#958ab0; stroke:none;" d="M537 631L538 632L537 631M610 631L611 632L610 631M425 632L425 649L426 649L425 632z"/>
<path style="fill:#462698; stroke:none;" d="M611 632L612 633L611 632M538 633L539 634L538 633z"/>
<path style="fill:#958ab0; stroke:none;" d="M611 633L612 634L611 633M539 634L540 635L539 634M612 634L613 635L612 634z"/>
<path style="fill:#462698; stroke:none;" d="M539 635L540 636L539 635z"/>
<path style="fill:#958ab0; stroke:none;" d="M540 636L541 637L540 636M613 636L614 637L613 636z"/>
<path style="fill:#462698; stroke:none;" d="M614 637L615 638L614 637M695 637L695 644L696 644L695 637M541 638L542 639L541 638z"/>
<path style="fill:#958ab0; stroke:none;" d="M614 638L615 639L614 638M542 639L543 640L542 639M615 639L616 640L615 639M543 641L544 642L543 641M616 641L617 642L616 641M544 642L545 643L544 642z"/>
<path style="fill:#462698; stroke:none;" d="M617 642L618 643L617 642M544 643L545 644L544 643z"/>
<path style="fill:#958ab0; stroke:none;" d="M545 644L546 645L545 644M618 644L619 645L618 644M641 644L641 665L642 665L641 644z"/>
<path style="fill:#462698; stroke:none;" d="M546 646L547 647L546 646z"/>
<path style="fill:#958ab0; stroke:none;" d="M619 646L620 647L619 646M547 647L548 648L547 647z"/>
<path style="fill:#462698; stroke:none;" d="M620 647L621 648L620 647M425 649L425 657L426 657L425 649z"/>
<path style="fill:#958ab0; stroke:none;" d="M548 649L549 650L548 649M621 649L622 650L621 649M549 650L550 651L549 650z"/>
<path style="fill:#462698; stroke:none;" d="M622 650L623 651L622 650M549 651L550 652L549 651z"/>
<path style="fill:#958ab0; stroke:none;" d="M622 651L623 652L622 651M550 652L551 653L550 652z"/>
<path style="fill:#462698; stroke:none;" d="M623 652L624 653L623 652M551 654L552 655L551 654z"/>
<path style="fill:#958ab0; stroke:none;" d="M624 654L625 655L624 654M552 655L553 656L552 655z"/>
<path style="fill:#462698; stroke:none;" d="M625 655L626 656L625 655M552 656L553 657L552 656z"/>
<path style="fill:#958ab0; stroke:none;" d="M625 656L626 657L625 656M553 657L554 658L553 657z"/>
<path style="fill:#462698; stroke:none;" d="M626 657L627 658L626 657M479 659L479 663L480 663L479 659M554 659L555 660L554 659z"/>
<path style="fill:#958ab0; stroke:none;" d="M627 659L628 660L627 659z"/>
<path style="fill:#462698; stroke:none;" d="M695 659L695 664L696 664L695 659z"/>
<path style="fill:#958ab0; stroke:none;" d="M555 660L556 661L555 660z"/>
<path style="fill:#462698; stroke:none;" d="M628 660L629 661L628 660z"/>
<path style="fill:#958ab0; stroke:none;" d="M628 661L629 662L628 661M556 662L557 663L556 662M629 662L630 663L629 662M479 663L479 671L480 671L479 663M557 663L558 664L557 663z"/>
<path style="fill:#462698; stroke:none;" d="M557 664L558 665L557 664z"/>
<path style="fill:#958ab0; stroke:none;" d="M630 664L631 665L630 664M695 664L695 674L696 674L695 664M558 665L559 666L558 665z"/>
<path style="fill:#462698; stroke:none;" d="M631 665L632 666L631 665M641 665L641 676L642 676L641 665M425 666L425 670L426 670L425 666z"/>
<path style="fill:#958ab0; stroke:none;" d="M631 666L632 667L631 666z"/>
<path style="fill:#462698; stroke:none;" d="M559 667L560 668L559 667z"/>
<path style="fill:#958ab0; stroke:none;" d="M632 667L633 668L632 667M560 668L561 669L560 668M633 669L634 670L633 669M425 670L425 679L426 679L425 670M561 670L562 671L561 670z"/>
<path style="fill:#462698; stroke:none;" d="M634 670L635 671L634 670M562 672L563 673L562 672z"/>
<path style="fill:#958ab0; stroke:none;" d="M635 672L636 673L635 672M563 673L564 674L563 673M636 674L637 675L636 674z"/>
<path style="fill:#462698; stroke:none;" d="M564 675L565 676L564 675M637 675L638 676L637 675z"/>
<path style="fill:#958ab0; stroke:none;" d="M565 676L566 677L565 676z"/>
<path style="fill:#462698; stroke:none;" d="M480 677L480 682L481 682L480 677M565 677L566 678L565 677z"/>
<path style="fill:#958ab0; stroke:none;" d="M638 677L639 678L638 677M566 678L567 679L566 678z"/>
<path style="fill:#462698; stroke:none;" d="M639 678L640 679L639 678z"/>
<path style="fill:#958ab0; stroke:none;" d="M639 679L640 680L639 679z"/>
<path style="fill:#462698; stroke:none;" d="M567 680L568 681L567 680M640 680L641 681L640 680z"/>
<path style="fill:#958ab0; stroke:none;" d="M568 681L569 682L568 681z"/>
<path style="fill:#462698; stroke:none;" d="M696 681L696 686L697 686L696 681z"/>
<path style="fill:#958ab0; stroke:none;" d="M480 682L480 690L481 690L480 682M641 682L642 683L641 682M569 683L570 684L569 683M570 684L571 685L570 684z"/>
<path style="fill:#462698; stroke:none;" d="M570 685L571 686L570 685M424 686L424 691L425 691L424 686z"/>
<path style="fill:#958ab0; stroke:none;" d="M571 686L572 687L571 686M696 686L696 696L697 696L696 686z"/>
<path style="fill:#462698; stroke:none;" d="M572 688L573 689L572 688z"/>
<path style="fill:#958ab0; stroke:none;" d="M573 689L574 690L573 689M424 691L424 700L425 700L424 691M574 691L575 692L574 691z"/>
<path style="fill:#462698; stroke:none;" d="M575 693L576 694L575 693z"/>
<path style="fill:#958ab0; stroke:none;" d="M576 694L577 695L576 694z"/>
<path style="fill:#462698; stroke:none;" d="M481 696L481 700L482 700L481 696z"/>
<path style="fill:#958ab0; stroke:none;" d="M577 696L578 697L577 696M578 697L579 698L578 697z"/>
<path style="fill:#462698; stroke:none;" d="M578 698L579 699L578 698z"/>
<path style="fill:#958ab0; stroke:none;" d="M579 699L580 700L579 699M481 700L481 708L482 708L481 700z"/>
<path style="fill:#462698; stroke:none;" d="M580 701L581 702L580 701z"/>
<path style="fill:#958ab0; stroke:none;" d="M581 702L582 703L581 702z"/>
<path style="fill:#462698; stroke:none;" d="M697 703L697 708L698 708L697 703z"/>
<path style="fill:#958ab0; stroke:none;" d="M582 704L583 705L582 704M583 705L584 706L583 705z"/>
<path style="fill:#462698; stroke:none;" d="M423 706L423 711L424 711L423 706M583 706L584 707L583 706z"/>
<path style="fill:#958ab0; stroke:none;" d="M584 707L585 708L584 707M697 708L697 717L698 717L697 708z"/>
<path style="fill:#462698; stroke:none;" d="M585 709L586 710L585 709z"/>
<path style="fill:#958ab0; stroke:none;" d="M586 710L587 711L586 710M423 711L423 720L424 720L423 711M587 712L588 713L587 712z"/>
<path style="fill:#462698; stroke:none;" d="M588 714L589 715L588 714M482 715L482 719L483 719L482 715z"/>
<path style="fill:#958ab0; stroke:none;" d="M589 715L590 716L589 715M590 717L591 718L590 717M591 718L592 719L591 718M482 719L482 727L483 727L482 719z"/>
<path style="fill:#462698; stroke:none;" d="M591 719L592 720L591 719z"/>
<path style="fill:#958ab0; stroke:none;" d="M592 720L593 721L592 720z"/>
<path style="fill:#462698; stroke:none;" d="M593 722L594 723L593 722z"/>
<path style="fill:#958ab0; stroke:none;" d="M594 723L595 724L594 723M595 725L596 726L595 725z"/>
<path style="fill:#462698; stroke:none;" d="M698 725L698 729L699 729L698 725z"/>
<path style="fill:#958ab0; stroke:none;" d="M596 726L597 727L596 726z"/>
<path style="fill:#462698; stroke:none;" d="M422 727L422 731L423 731L422 727M596 727L597 728L596 727z"/>
<path style="fill:#958ab0; stroke:none;" d="M597 728L598 729L597 728M698 729L698 739L699 739L698 729z"/>
<path style="fill:#462698; stroke:none;" d="M598 730L599 731L598 730z"/>
<path style="fill:#958ab0; stroke:none;" d="M422 731L422 740L423 740L422 731M599 731L600 732L599 731z"/>
<path style="fill:#462698; stroke:none;" d="M599 732L600 733L599 732M483 733L483 737L484 737L483 733z"/>
<path style="fill:#958ab0; stroke:none;" d="M600 733L601 734L600 733z"/>
<path style="fill:#462698; stroke:none;" d="M601 735L602 736L601 735z"/>
<path style="fill:#958ab0; stroke:none;" d="M602 736L603 737L602 736M483 737L483 746L484 746L483 737M603 738L604 739L603 738M604 739L605 740L604 739z"/>
<path style="fill:#462698; stroke:none;" d="M604 740L605 741L604 740z"/>
<path style="fill:#958ab0; stroke:none;" d="M605 741L606 742L605 741z"/>
<path style="fill:#462698; stroke:none;" d="M606 743L607 744L606 743z"/>
<path style="fill:#958ab0; stroke:none;" d="M607 744L608 745L607 744M608 746L609 747L608 746z"/>
<path style="fill:#462698; stroke:none;" d="M699 746L699 751L700 751L699 746M421 747L421 752L422 752L421 747M609 748L610 749L609 748z"/>
<path style="fill:#958ab0; stroke:none;" d="M610 749L611 750L610 749z"/>
<path style="fill:#462698; stroke:none;" d="M611 751L612 752L611 751z"/>
<path style="fill:#958ab0; stroke:none;" d="M699 751L699 761L700 761L699 751M421 752L421 761L422 761L421 752z"/>
<path style="fill:#462698; stroke:none;" d="M484 752L484 756L485 756L484 752z"/>
<path style="fill:#958ab0; stroke:none;" d="M612 752L613 753L612 752z"/>
<path style="fill:#462698; stroke:none;" d="M612 753L613 754L612 753z"/>
<path style="fill:#958ab0; stroke:none;" d="M613 754L614 755L613 754M484 756L484 764L485 764L484 756z"/>
<path style="fill:#462698; stroke:none;" d="M614 756L615 757L614 756z"/>
<path style="fill:#958ab0; stroke:none;" d="M615 757L616 758L615 757M616 759L617 760L616 759M617 760L618 761L617 760z"/>
<path style="fill:#462698; stroke:none;" d="M617 761L618 762L617 761z"/>
<path style="fill:#958ab0; stroke:none;" d="M618 762L619 763L618 762z"/>
<path style="fill:#462698; stroke:none;" d="M619 764L620 765L619 764z"/>
<path style="fill:#958ab0; stroke:none;" d="M620 765L621 766L620 765M621 767L622 768L621 767z"/>
<path style="fill:#462698; stroke:none;" d="M420 768L420 772L421 772L420 768M700 768L700 773L701 773L700 768M622 769L623 770L622 769M485 770L485 775L486 775L485 770z"/>
<path style="fill:#958ab0; stroke:none;" d="M623 770L624 771L623 770M420 772L420 781L421 781L420 772M624 772L625 773L624 772M625 773L626 774L625 773M700 773L699 781L700 781L700 773z"/>
<path style="fill:#462698; stroke:none;" d="M625 774L626 775L625 774z"/>
<path style="fill:#958ab0; stroke:none;" d="M485 775L485 783L486 783L485 775M626 775L627 776L626 775z"/>
<path style="fill:#462698; stroke:none;" d="M627 777L628 778L627 777z"/>
<path style="fill:#958ab0; stroke:none;" d="M628 778L629 779L628 778M629 780L630 781L629 780z"/>
<path style="fill:#462698; stroke:none;" d="M700 780L701 781L700 780z"/>
<path style="fill:#958ab0; stroke:none;" d="M630 781L631 782L630 781M694.667 781.333L695.333 781.667L694.667 781.333z"/>
<path style="fill:#462698; stroke:none;" d="M696 781L697 782L696 781M630 782L631 783L630 782z"/>
<path style="fill:#958ab0; stroke:none;" d="M690.667 782.333L691.333 782.667L690.667 782.333z"/>
<path style="fill:#462698; stroke:none;" d="M692 782L693 783L692 782z"/>
<path style="fill:#958ab0; stroke:none;" d="M631 783L632 784L631 783M685.667 783.333L686.333 783.667L685.667 783.333z"/>
<path style="fill:#462698; stroke:none;" d="M687 783L688 784L687 783z"/>
<path style="fill:#958ab0; stroke:none;" d="M680.667 784.333L681.333 784.667L680.667 784.333z"/>
<path style="fill:#462698; stroke:none;" d="M682 784L683 785L682 784M632 785L633 786L632 785z"/>
<path style="fill:#958ab0; stroke:none;" d="M675.667 785.333L676.333 785.667L675.667 785.333z"/>
<path style="fill:#462698; stroke:none;" d="M677 785L678 786L677 785z"/>
<path style="fill:#958ab0; stroke:none;" d="M633 786L634 787L633 786M671.667 786.333L672.333 786.667L671.667 786.333z"/>
<path style="fill:#462698; stroke:none;" d="M673 786L674 787L673 786z"/>
<path style="fill:#958ab0; stroke:none;" d="M666.667 787.333L667.333 787.667L666.667 787.333z"/>
<path style="fill:#462698; stroke:none;" d="M668 787L669 788L668 787M419 788L419 792L420 792L419 788z"/>
<path style="fill:#958ab0; stroke:none;" d="M634 788L635 789L634 788M661.667 788.333L662.333 788.667L661.667 788.333z"/>
<path style="fill:#462698; stroke:none;" d="M663 788L664 789L663 788M486 789L486 792L487 792L486 789z"/>
<path style="fill:#958ab0; stroke:none;" d="M656.667 789.333L657.333 789.667L656.667 789.333z"/>
<path style="fill:#462698; stroke:none;" d="M658.667 789.333L659.333 789.667L658.667 789.333M635 790L636 791L635 790z"/>
<path style="fill:#958ab0; stroke:none;" d="M652.667 790.333L653.333 790.667L652.667 790.333z"/>
<path style="fill:#462698; stroke:none;" d="M654 790L655 791L654 790z"/>
<path style="fill:#958ab0; stroke:none;" d="M636 791L637 792L636 791M647.667 791.333L648.333 791.667L647.667 791.333z"/>
<path style="fill:#462698; stroke:none;" d="M649 791L650 792L649 791z"/>
<path style="fill:#958ab0; stroke:none;" d="M642.667 792.333L643.333 792.667L642.667 792.333z"/>
<path style="fill:#462698; stroke:none;" d="M644 792L645 793L644 792M637 793L638 794L637 793z"/>
<path style="fill:#958ab0; stroke:none;" d="M638.667 793.333L639.333 793.667L638.667 793.333z"/>
<path style="fill:#462698; stroke:none;" d="M640 793L641 794L640 793z"/>
<path style="fill:#361e74; stroke:none;" d="M334 883L335 884L334 883M563 883L564 884L563 883M338 884L339 885L338 884M558.667 884.333L559.333 884.667L558.667 884.333M346 886L347 887L346 886M551 886L552 887L551 886M351.667 887.333L352.333 887.667L351.667 887.333M545.667 887.333L546.333 887.667L545.667 887.333M366 890L367 891L366 890M529 890L530 891L529 890M531 890L532 891L531 890M370 891L371 892L370 891M527 891L528 892L527 891M376 892L377 893L376 892M521 892L522 893L521 892M382 893L382 894L385 894L382 893M513 893L513 894L516 894L513 893M397 895L398 896L397 895M500 895L501 896L500 895M407 896L408 897L407 896M410 896L411 897L410 896M487 896L488 897L487 896M490 896L491 897L490 896M419 897L420 898L419 897M478 897L479 898L478 897z"/>
</svg>
